<svg width="33" height="14" viewBox="0 0 33 14" fill="none" xmlns="http://www.w3.org/2000/svg">
<g clip-path="url(#clip0_7_390)">
<path d="M6.64026 1.81501C7.01026 1.32501 7.28026 0.665015 7.20026 0.0150146C6.64026 0.0450146 5.98026 0.395015 5.58026 0.865015C5.23026 1.27501 4.92026 1.95501 5.00026 2.58501C5.64026 2.66501 6.25026 2.31501 6.65026 1.82501M7.21026 2.75501C6.31026 2.70501 5.54026 3.27501 5.11026 3.27501C4.68026 3.27501 4.02026 2.78501 3.30026 2.78501C2.37026 2.81501 1.52026 3.33501 1.04026 4.20501C0.0802639 5.92501 0.770264 8.46501 1.73026 9.85501C2.18026 10.535 2.74026 11.305 3.46026 11.275C4.15026 11.245 4.42026 10.815 5.24026 10.815C6.06026 10.815 6.30026 11.275 7.05026 11.255C7.79026 11.225 8.27026 10.575 8.72026 9.86502C9.25026 9.07502 9.46026 8.31501 9.46026 8.28502C9.43026 8.25502 8.00026 7.71501 8.00026 6.02501C7.97026 4.60501 9.12026 3.92501 9.17026 3.89501C8.56026 2.91501 7.55026 2.80501 7.20026 2.77501" fill="#033137"/>
<path d="M15.0102 0.805054C16.9802 0.805054 18.3302 2.19505 18.3302 4.18505C18.3302 6.17505 16.9502 7.59505 14.9602 7.59505H12.8102V11.1151H11.2402V0.805054H15.0102ZM12.8102 6.26505H14.5902C15.9402 6.26505 16.7202 5.50505 16.7202 4.21505C16.7202 2.92505 15.9502 2.16505 14.5902 2.16505H12.7802V6.26505H12.8102ZM18.7302 9.02505C18.7302 7.71505 19.7102 6.89505 21.4702 6.78505L23.4902 6.67505V6.10505C23.4902 5.25505 22.9302 4.76505 22.0302 4.76505C21.1302 4.76505 20.6202 5.20505 20.4902 5.85505H19.0602C19.1402 4.49505 20.2802 3.48505 22.0902 3.48505C23.9002 3.48505 25.0102 4.43505 25.0102 5.96505V11.1451H23.5802V9.91505H23.5502C23.1202 10.7651 22.2002 11.2751 21.2402 11.2751C19.7502 11.2751 18.7402 10.3451 18.7402 9.01505L18.7302 9.02505ZM23.4802 8.34505V7.74505L21.6702 7.85505C20.7702 7.90505 20.2602 8.31505 20.2602 8.97505C20.2602 9.63505 20.7902 10.0651 21.5902 10.0651C22.6502 10.0651 23.4802 9.32505 23.4802 8.34505ZM26.3202 13.9351V12.6851C26.4302 12.7151 26.6902 12.7151 26.8002 12.7151C27.4902 12.7151 27.8602 12.4151 28.1002 11.6551C28.1002 11.6251 28.2302 11.1951 28.2302 11.1951L25.5702 3.66505H27.1902L29.0502 9.80505H29.0802L30.9402 3.66505H32.5302L29.7902 11.6051C29.1502 13.4351 28.4402 14.0051 26.9202 14.0051C26.8102 13.9751 26.4402 13.9751 26.3102 13.9551L26.3202 13.9351Z" fill="#033137"/>
</g>
<defs>
<clipPath id="clip0_7_390">
<rect width="31.96" height="13.97" fill="white" transform="translate(0.580017 0.0150146)"/>
</clipPath>
</defs>
</svg>
