<svg width="78" height="24" viewBox="0 0 78 24" fill="none" xmlns="http://www.w3.org/2000/svg">
<g clip-path="url(#clip0_7_376)">
<path d="M28.5 5.83998H32.17V6.19998H28.89V8.33998H31.84V8.69998H28.89V11.04H28.5V5.83998ZM32.93 8.87998V5.82998H33.32V8.83998C33.32 10.07 33.98 10.77 35.09 10.77C36.2 10.77 36.83 10.13 36.83 8.87998V5.82998H37.22V8.83998C37.22 10.33 36.35 11.14 35.08 11.14C33.83 11.13 32.94 10.35 32.94 8.87998M38.31 5.83998H38.67L42.27 10.37V5.83998H42.65V11.04H42.36L38.69 6.40998V11.04H38.31V5.83998ZM45.56 10.68C47.01 10.68 47.92 9.68998 47.92 8.44998C47.92 7.19998 47 6.18998 45.56 6.18998H44.21V10.68H45.56ZM43.82 5.83998H45.56C47.2 5.83998 48.32 6.96998 48.32 8.42998C48.32 9.90998 47.19 11.05 45.56 11.05H43.82V5.83998ZM51.43 8.53998C52.3 8.53998 52.95 8.09998 52.95 7.34998C52.95 6.63998 52.4 6.19998 51.46 6.19998H49.68V8.54998H51.43V8.53998ZM49.28 5.83998H51.47C52.11 5.83998 52.63 6.02998 52.94 6.35998C53.19 6.60998 53.33 6.95998 53.33 7.32998C53.33 8.20998 52.68 8.71998 51.8 8.82998L53.53 11.05H53.04L51.38 8.89998H49.68V11.04H49.29V5.83998H49.28ZM57.83 9.23998L56.45 6.22998L55.07 9.23998H57.82H57.83ZM56.27 5.79998H56.65L59.08 11.04H58.65L57.99 9.58998H54.91L54.25 11.04H53.85L56.28 5.79998H56.27ZM59.87 11.04H60.26V5.83998H59.87V11.04ZM61.14 10.29L61.4 9.99998C61.97 10.53 62.5 10.78 63.27 10.78C64.04 10.78 64.59 10.34 64.59 9.73998C64.59 9.17998 64.3 8.85998 63.11 8.61998C61.86 8.36998 61.36 7.94998 61.36 7.14998C61.36 6.35998 62.07 5.75998 63.03 5.75998C63.8 5.75998 64.29 5.96998 64.82 6.39998L64.57 6.70998C64.08 6.27998 63.58 6.12998 63.01 6.12998C62.24 6.12998 61.74 6.56998 61.74 7.11998C61.74 7.67998 62.03 8.01998 63.26 8.26998C64.47 8.51998 64.97 8.93998 64.97 9.70998C64.97 10.57 64.24 11.15 63.24 11.15C62.4 11.11 61.76 10.84 61.12 10.28M65.91 11.03H66.3V5.83998H65.91V11.04V11.03ZM67.52 5.82998H67.88L71.48 10.36V5.83998H71.86V11.04H71.57L67.9 6.40998V11.04H67.52V5.83998V5.82998ZM72.8 8.43998C72.8 7.02998 73.83 5.72998 75.38 5.72998C76.22 5.72998 76.77 5.97998 77.29 6.41998L77.03 6.70998C76.61 6.34998 76.15 6.08998 75.36 6.08998C74.09 6.08998 73.21 7.16998 73.21 8.42998C73.21 9.78998 74.05 10.79 75.44 10.79C76.1 10.79 76.72 10.52 77.1 10.19V8.69998H75.36V8.33998H77.48V10.35C77.01 10.77 76.29 11.13 75.43 11.13C73.79 11.14 72.81 9.91998 72.81 8.45998" fill="#8D1D82"/>
<path d="M31.0199 15.18C31.6399 15.18 32.0099 14.84 32.0099 14.35C32.0099 13.79 31.6199 13.51 30.9999 13.51H29.7299V15.18H31.0299H31.0199ZM28.4199 12.35H31.0899C31.8299 12.35 32.4099 12.56 32.7899 12.95C33.1099 13.27 33.2999 13.73 33.2999 14.29C33.2999 15.25 32.7899 15.83 32.0499 16.11L33.4799 18.2H31.9699L30.7099 16.33H29.6999V18.2H28.4199V12.36V12.35ZM34.0399 12.35H38.4499V13.49H35.3199V14.67H38.0699V15.81H35.3199V17.03H38.4899V18.17H34.0399V12.35ZM38.9599 15.28C38.9599 13.61 40.2599 12.24 42.0199 12.24C43.0699 12.24 43.7099 12.53 44.3199 13.04L43.5199 14.01C43.0699 13.63 42.6599 13.41 41.9899 13.41C41.0599 13.41 40.3199 14.24 40.3199 15.23C40.3199 16.31 41.0599 17.1 42.0899 17.1C42.5599 17.1 42.9699 16.98 43.2999 16.75V15.92H41.9999V14.82H44.5399V17.35C43.9399 17.86 43.1099 18.27 42.0499 18.27C40.2199 18.27 38.9699 17 38.9699 15.27M45.2499 15.67V12.34H46.5299V15.65C46.5299 16.6 47.0099 17.09 47.7899 17.09C48.5699 17.09 49.0499 16.61 49.0499 15.69V12.34H50.3299V15.64C50.3299 17.4 49.3299 18.27 47.7599 18.27C46.1899 18.27 45.2399 17.39 45.2399 15.68M51.2199 12.35H52.4999V17.02H55.4199V18.19H51.2199V12.35ZM59.3299 15.74L58.5499 13.85L57.7699 15.74H59.3299ZM57.9799 12.32H59.1599L61.6599 18.2H60.3099L59.7799 16.89H57.3099L56.7799 18.2H55.4699L57.9699 12.32H57.9799ZM62.7599 13.54H60.9799V12.36H65.8199V13.54H64.0399V18.2H62.7599V13.54ZM70.7499 15.29C70.7499 14.28 70.0099 13.45 68.9799 13.45C67.9499 13.45 67.2299 14.27 67.2299 15.27C67.2299 16.28 67.9699 17.11 68.9999 17.11C70.0299 17.11 70.7499 16.29 70.7499 15.29ZM65.8699 15.29C65.8699 13.62 67.1799 12.25 68.9799 12.25C70.7799 12.25 72.0799 13.59 72.0799 15.25C72.0799 16.92 70.7699 18.29 68.9699 18.29C67.1699 18.29 65.8699 16.95 65.8699 15.29ZM75.3999 15.19C76.0199 15.19 76.3899 14.85 76.3899 14.36C76.3899 13.8 75.9999 13.52 75.3799 13.52H74.1099V15.19H75.4099H75.3999ZM72.8199 12.36H75.4899C76.2299 12.36 76.8099 12.57 77.1899 12.96C77.5099 13.28 77.6999 13.74 77.6999 14.3C77.6999 15.26 77.1899 15.84 76.4399 16.12L77.8699 18.21H76.3599L75.0999 16.34H74.0899V18.21H72.8099V12.37H72.8199V12.36Z" fill="#575756"/>
<path d="M11.93 0.0899658C5.35 0.0899658 0 5.41997 0 12C0 18.58 5.33 23.91 11.93 23.91C18.53 23.91 23.86 18.58 23.86 12C23.85 5.41997 18.51 0.0899658 11.93 0.0899658ZM11.93 2.04997C17.42 2.04997 21.9 6.50997 21.9 12C21.9 17.49 17.44 21.95 11.93 21.95C6.42 21.95 1.96 17.49 1.96 12C1.96 6.50997 6.42 2.04997 11.93 2.04997Z" fill="#8D1D82"/>
<path d="M4.87988 8H11.6499V10.05H7.22988V11.49H11.2299V13.44H7.22988V16.46H4.87988V8ZM16.0299 12.06C16.8199 12.06 17.2899 11.67 17.2899 11.06V11.03C17.2899 10.36 16.7999 10.02 16.0199 10.02H14.4799V12.06H16.0399H16.0299ZM12.1399 8H16.1399C17.4399 8 18.3299 8.34 18.8899 8.91C19.3799 9.4 19.6399 10.04 19.6399 10.88V10.91C19.6399 12.22 18.9499 13.08 17.8999 13.52L19.9199 16.46H17.2199L15.5099 13.89H14.4699V16.45H12.1199V8H12.1299H12.1399Z" fill="#8D1D82"/>
</g>
<defs>
<clipPath id="clip0_7_376">
<rect width="77.87" height="23.82" fill="white" transform="translate(0 0.0899658)"/>
</clipPath>
</defs>
</svg>
