<svg width="36" height="14" viewBox="0 0 36 14" fill="none" xmlns="http://www.w3.org/2000/svg">
<g clip-path="url(#clip0_7_393)">
<path d="M17.0897 6.83509V10.9351H15.7997V0.815093H19.2297C20.0597 0.795093 20.8597 1.11509 21.4497 1.69509C22.0497 2.23509 22.3897 3.01509 22.3797 3.83509C22.3997 4.65509 22.0597 5.43509 21.4497 5.98509C20.8497 6.56509 20.1097 6.84509 19.2297 6.84509H17.0997L17.0897 6.83509ZM17.0897 2.05509V5.58509H19.2597C19.7397 5.59509 20.1997 5.40509 20.5397 5.06509C21.2197 4.40509 21.2297 3.30509 20.5697 2.62509C20.5597 2.61509 20.5497 2.60509 20.5397 2.59509C20.2097 2.23509 19.7397 2.04509 19.2597 2.05509H17.0897ZM25.3497 3.77509C26.3097 3.77509 27.0597 4.03509 27.6097 4.54509C28.1597 5.05509 28.4397 5.76509 28.4397 6.65509V10.9251H27.1997V9.96509H27.1397C26.6097 10.7551 25.8897 11.1551 24.9997 11.1551C24.2397 11.1551 23.6097 10.9251 23.0997 10.4751C22.5997 10.0551 22.3197 9.43509 22.3297 8.77509C22.3297 8.05509 22.5997 7.48509 23.1397 7.06509C23.6797 6.64509 24.3997 6.42509 25.2997 6.42509C26.0697 6.42509 26.6997 6.56509 27.1997 6.84509V6.54509C27.1997 6.09509 27.0097 5.67509 26.6697 5.39509C26.3297 5.08509 25.8797 4.91509 25.4197 4.92509C24.6997 4.92509 24.1297 5.23509 23.7097 5.84509L22.5697 5.12509C23.1897 4.22509 24.1197 3.76509 25.3497 3.76509V3.77509ZM23.6797 8.80509C23.6797 9.14509 23.8397 9.45509 24.1097 9.65509C24.3997 9.88509 24.7497 10.0051 25.1097 9.99509C25.6597 9.99509 26.1797 9.77509 26.5597 9.38509C26.9897 8.97509 27.1997 8.50509 27.1997 7.95509C26.7997 7.63509 26.2397 7.46509 25.5097 7.46509C24.9897 7.46509 24.5497 7.59509 24.1997 7.84509C23.8497 8.10509 23.6697 8.41509 23.6697 8.79509L23.6797 8.80509ZM35.5397 3.99509L31.2297 13.9751H29.8997L31.4997 10.4851L28.6597 3.99509H30.0597L32.1097 8.97509H32.1397L34.1297 3.99509H35.5397Z" fill="#033137"/>
<path d="M11.8693 5.95502C11.8693 5.55502 11.8393 5.16502 11.7693 4.77502H6.31927V7.01502H9.43927C9.30927 7.73502 8.88927 8.37502 8.28927 8.78502V10.235H10.1493C11.2393 9.22502 11.8693 7.72502 11.8693 5.95502Z" fill="#4285F4"/>
<path d="M6.31912 11.6351C7.87912 11.6351 9.18912 11.1251 10.1491 10.2351L8.28912 8.78507C7.76912 9.13507 7.09912 9.34507 6.31912 9.34507C4.80912 9.34507 3.52912 8.32507 3.07912 6.94507H1.15912V8.44507C2.13912 10.4151 4.13912 11.6451 6.31912 11.6451V11.6351Z" fill="#34A853"/>
<path d="M3.06955 6.93508C2.82955 6.21508 2.82955 5.43508 3.06955 4.70508V3.20508H1.15955C0.329548 4.85508 0.329548 6.78508 1.15955 8.43508L3.07955 6.93508H3.06955Z" fill="#FBBC04"/>
<path d="M6.31912 2.30504C7.13912 2.29504 7.93912 2.60504 8.53912 3.17504L10.1891 1.51504C9.13912 0.535044 7.74912 -0.0149563 6.31912 0.00504368C4.12912 0.00504368 2.13912 1.24504 1.15912 3.20504L3.07912 4.70504C3.53912 3.32504 4.81912 2.30504 6.31912 2.30504Z" fill="#EA4335"/>
</g>
<defs>
<clipPath id="clip0_7_393">
<rect width="34.99" height="13.99" fill="white" transform="translate(0.539978 0.00500488)"/>
</clipPath>
</defs>
</svg>
