<svg width="27" height="16" viewBox="0 0 27 16" fill="none" xmlns="http://www.w3.org/2000/svg">
<g clip-path="url(#clip0_7_385)">
<path d="M26.5803 13.6101V12.6101H26.4603L26.3203 13.3001L26.1803 12.6101H26.0603V13.6101H26.1503V12.8601L26.2803 13.5101H26.3703L26.5003 12.8601V13.6201H26.5803V13.6101ZM25.8203 13.6101V12.7801H25.9703V12.6101H25.5803V12.7801H25.7303V13.6101H25.8203Z" fill="#F79410"/>
<path d="M17.1201 14.24H10.1701V1.76001H17.1201V14.24Z" fill="#FF5F00"/>
<path d="M10.61 8.00006C10.61 5.47006 11.8 3.21006 13.64 1.76006C12.25 0.660059 10.52 0.0600586 8.73999 0.0600586C4.34999 0.0600586 0.799988 3.62006 0.799988 8.00006C0.799988 12.3801 4.34999 15.9401 8.73999 15.9401C10.52 15.9401 12.25 15.3401 13.65 14.2401C11.8 12.7901 10.62 10.5301 10.62 8.00006" fill="#EB001B"/>
<path d="M26.4898 8.00006C26.4898 12.3901 22.9398 15.9401 18.5498 15.9401C16.7698 15.9401 15.0398 15.3401 13.6398 14.2401C15.4898 12.7901 16.6698 10.5301 16.6698 8.00006C16.6698 5.47006 15.4798 3.21006 13.6398 1.76006C15.0398 0.660059 16.7698 0.0600586 18.5498 0.0600586C22.9398 0.0600586 26.4898 3.62006 26.4898 8.00006Z" fill="#F79E1B"/>
</g>
<defs>
<clipPath id="clip0_7_385">
<rect width="25.78" height="15.88" fill="white" transform="translate(0.799988 0.0600586)"/>
</clipPath>
</defs>
</svg>
