<svg width="38" height="12" viewBox="0 0 38 12" fill="none" xmlns="http://www.w3.org/2000/svg">
<g clip-path="url(#clip0_7_382)">
<path d="M16.86 11.79H13.84L15.73 0.22001H18.75L16.86 11.79ZM11.31 0.22001L8.43 8.18001L8.09 6.47001L7.08 1.26001C7.08 1.26001 6.96 0.22001 5.65 0.22001H0.899996L0.839996 0.42001C0.839996 0.42001 2.29 0.72001 3.99 1.74001L6.61 11.8H9.75L14.55 0.22001H11.3H11.31ZM35.03 11.79H37.8L35.38 0.22001H32.96C31.84 0.22001 31.57 1.08001 31.57 1.08001L27.07 11.79H30.21L30.84 10.07H34.67L35.02 11.79H35.03ZM31.71 7.70001L33.29 3.37001L34.18 7.70001H31.7H31.71ZM27.3 3.00001L27.73 0.51001C27.73 0.51001 26.4 0.0100098 25.02 0.0100098C23.52 0.0100098 19.97 0.66001 19.97 3.84001C19.97 6.83001 24.14 6.87001 24.14 8.44001C24.14 10.01 20.4 9.73001 19.16 8.74001L18.71 11.34C18.71 11.34 20.06 11.99 22.11 11.99C24.16 11.99 27.27 10.93 27.27 8.03001C27.27 5.13001 23.06 4.74001 23.06 3.43001C23.06 2.12001 26 2.29001 27.29 3.00001H27.3Z" fill="#2566AF"/>
<path d="M8.09 6.45997L7.08 1.25997C7.08 1.25997 6.96 0.219971 5.65 0.219971H0.899996L0.839996 0.419971C0.839996 0.419971 3.12 0.889971 5.32 2.66997C7.42 4.35997 8.1 6.47997 8.1 6.47997L8.09 6.45997Z" fill="#E6A540"/>
</g>
<defs>
<clipPath id="clip0_7_382">
<rect width="36.96" height="11.98" fill="white" transform="translate(0.839996 0.0100098)"/>
</clipPath>
</defs>
</svg>
